<svg viewBox="0 0 200 300" fill="none" xmlns="http://www.w3.org/2000/svg">
  <g opacity="0.6">
    <!-- Main stem -->
    <path d="M100,280 C100,200 100,150 100,20" stroke="#16a34a" stroke-width="3" fill="none"/>
    
    <!-- Large leaves -->
    <path d="M100,100 C130,80 160,90 170,120 C160,150 130,160 100,140" fill="#4ade80"/>
    <path d="M100,100 C70,80 40,90 30,120 C40,150 70,160 100,140" fill="#4ade80"/>
    
    <path d="M100,180 C130,160 160,170 170,200 C160,230 130,240 100,220" fill="#22c55e"/>
    <path d="M100,180 C70,160 40,170 30,200 C40,230 70,240 100,220" fill="#22c55e"/>
    
    <!-- Small leaves -->
    <path d="M100,60 C115,50 130,55 135,70 C130,85 115,90 100,80" fill="#86efac"/>
    <path d="M100,60 C85,50 70,55 65,70 C70,85 85,90 100,80" fill="#86efac"/>
    
    <!-- Top flourish -->
    <path d="M100,20 C110,10 120,15 125,25 C120,35 110,40 100,30" fill="#4ade80"/>
    <path d="M100,20 C90,10 80,15 75,25 C80,35 90,40 100,30" fill="#4ade80"/>
  </g>
</svg> 